<?xml version="1.0" encoding="utf-8"?>
<!-- Generator: Adobe Illustrator 23.0.0, SVG Export Plug-In . SVG Version: 6.00 Build 0)  -->
<svg version="1.1" id="ff0a9005-ace7-4ae9-a138-baca591b0572"
	 xmlns="http://www.w3.org/2000/svg" xmlns:xlink="http://www.w3.org/1999/xlink" x="0px" y="0px" viewBox="0 0 96 96"
	 style="enable-background:new 0 0 96 96;" xml:space="preserve">
<style type="text/css">
	.st0{fill:#FFFFFF;}
</style>
<title>axa_icon_96_people_2px</title>
<path class="st0" d="M81.9,63.8c-0.4-0.8-0.8-1.5-1.4-2.2c-1.3-1.8-2.9-3.3-4.8-4.5c-0.8-0.5-1.7-1-2.6-1.4c-1.5-0.6-3-1.1-4.7-1.3
	L62,53.5l-3.7-0.5l-0.3,0v-5c0.8-0.5,1.5-1.1,2.1-1.7c3.6-3.8,5.6-8.8,5.6-14c1-0.5,2.9-1.6,4.5-3.3c0.4-0.5,0.8-1.1,1.2-1.7
	c0.5-1,0.9-2.2,0.9-3.4V17c0-0.5,0-1-0.1-1.5c-0.1-0.7-0.3-1.4-0.6-2c-0.9-2.2-2.7-4.1-5-5.1h-0.1l-2.4-0.8l-2-0.7l-3.5-1.2
	C56.2,4,51.2,3,48,3s-8.1,0.9-10.8,2.7l-7.8,2.7h-0.1c-3.4,1.5-5.6,4.8-5.7,8.6v6.5c0,4.9,4.8,7.6,6.5,8.5c0.1,6,2.6,12.2,7.8,15.7
	v5.1l-10.4,1.6C18.7,55.6,12,63.1,12,72v8.7c0,3,2.2,5.6,5.2,6.1l14.4,2.7c7.6,1.4,15.3,1.8,23,1.3c2.9-0.2,5.7-0.5,8.6-1
	c0.4-0.1,0.9-0.1,1.3-0.2l14.4-2.7c3-0.5,5.1-3.1,5.2-6.1V72C84,69,83.2,66.2,81.9,63.8z M59.7,55.9L59,59.2L58,63.6l-0.4,1.7
	l-7.9-4.1l4.4-3.8l3.1-2.6l2.6,0.4L59.7,55.9z M47.5,59.6l-1.7-1.4l-5.9-5v-4.3c2.5,1.2,5.3,1.8,8.1,1.8h0.2c2.7,0,5.4-0.6,7.8-1.7
	v4.2l-3,2.5l-3.7,3.1L48,60L47.5,59.6z M59.4,8L61,8.6l1.9,0.7l3,1c1.5,0.7,2.7,1.8,3.5,3.2c0.3,0.6,0.6,1.3,0.8,2
	c0.1,0.5,0.2,1,0.2,1.6v6.5c0,0.5-0.1,1-0.2,1.5c-0.7,2.3-2.9,3.9-4.3,4.7v-14c0-0.4-0.2-0.8-0.6-0.9l-1.6-0.6L62,13.5l0,0
	c-0.8-0.3-1.5-0.9-1.9-1.6c-0.4-0.7-0.7-1.5-0.7-2.3V8z M30.2,15.7v14c-1.8-1-4.5-3.1-4.5-6.2V17c0-2.9,1.8-5.6,4.4-6.7L36.5,8v1.6
	c0,1.7-1,3.3-2.6,3.9l-3.2,1.3C30.4,15,30.2,15.3,30.2,15.7z M32.2,31.4v-15l2.6-1c2.4-0.9,3.9-3.2,3.9-5.8V7.2
	c5.9-2.9,12.8-2.9,18.7,0v2.4c0,2.1,1,4,2.8,5.2c0.4,0.2,0.7,0.4,1.1,0.6l2.1,0.8l0.5,0.2v15.4c0,0.2,0,0.3,0,0.5
	c-0.1,4.6-1.9,8.9-5.1,12.3c-0.5,0.5-1,0.9-1.5,1.3c-0.8,0.6-1.7,1.1-2.6,1.5c-2.1,1-4.4,1.4-6.7,1.3C37,48.6,32.2,39.7,32.2,31.4z
	 M38.7,54.7l5.2,4.4l1.7,1.4l0.7,0.6l-6,3.1l-1.9,1l-0.3-1.6L36,55.1L38.7,54.7z M22.4,85.7l-4.8-0.9c-2.1-0.3-3.6-2.1-3.6-4.1V72
	c0-5.8,3.2-11.1,8.4-13.8V85.7z M28.8,86.9l-4.5-0.8V57.3c1.2-0.5,2.3-0.8,3.5-0.9l1-0.2V86.9z M31.9,87.5l-1-0.2V55.9l3.3-0.5
	l2.2,10.2l0.3,1.3c0.1,0.4,0.5,0.8,0.9,0.8c0.1,0,0.2,0,0.3,0c0.1,0,0.2,0,0.2-0.1L47,63v26c-0.7,0-1.4,0-2.2-0.1
	C40.4,88.8,36.1,88.4,31.9,87.5z M65,87.4l-1,0.1c-3,0.5-6,0.9-9,1.2C53,88.9,51,89,49,89V63l8.9,4.6c0.5,0.3,1.1,0.1,1.3-0.4
	c0,0,0,0,0-0.1v0c0-0.1,0.1-0.1,0.1-0.1l0.8-3.5l1.7-7.7l0.1-0.3L65,56V87.4z M71.5,86.1L67,86.9V56.2l1,0.2
	c1.2,0.1,2.4,0.4,3.5,0.9V86.1z M82,80.7c0,2.1-1.5,3.8-3.6,4.2l-4.8,0.9V58.2c2.7,1.4,4.9,3.6,6.3,6.1c0.5,0.8,0.8,1.6,1.2,2.5
	c0.6,1.6,0.9,3.4,0.9,5.2V80.7z"/>
</svg>
