<svg id="1ded9e21-f486-4eda-8708-367437efd342" data-name="svg" xmlns="http://www.w3.org/2000/svg" viewBox="0 0 96 96" style="fill:#fff;"><title>family/group</title><path d="M87.61,48.1A7.8,7.8,0,0,0,90.51,44,1,1,0,0,0,90,42.83S85.92,40.78,85.92,37V23.41c0-2.56-1.33-5.14-3.89-5.48-2.33-3.64-5.13-6.81-12.11-6.81H68.77c-8.33,0-14.85,6.88-14.85,15.67V37a6.37,6.37,0,0,1-2.57,4.86,11.77,11.77,0,0,0-2.2-.22H46.85A12.77,12.77,0,0,0,37,46.53l-3-.32V42a11.61,11.61,0,0,0,1.94-4.2c1.21-.57,6.13-3.36,6.13-11V24.54c0-3.21,0-8.52-5.05-8.88C34.82,12.25,32,10,26.08,10H24.92A14.9,14.9,0,0,0,10.08,24.54V26.8c0,7.6,4.92,10.39,6.13,11A11.61,11.61,0,0,0,18.15,42v4.25l-5.62.6C6.43,47.66,2,52.36,2,58v3.74a4.31,4.31,0,0,0,3.71,4.13l9.46,1.64a63.69,63.69,0,0,0,10.91.94A63.79,63.79,0,0,0,37,67.49l3.79-.66c.15.22.3.43.46.63v2.65L36.46,71c-5.26.74-9.08,4.86-9.08,9.78v3.24a3.84,3.84,0,0,0,3.27,3.7l8,1.42a53.33,53.33,0,0,0,18.6,0l8-1.42a3.84,3.84,0,0,0,3.27-3.7V80.83c0-4.93-3.82-9-9-9.77l-4.82-.93V67.47c.16-.2.32-.42.46-.63l3.79.66a63.64,63.64,0,0,0,21.81,0l9.46-1.64A4.31,4.31,0,0,0,94,61.72V58A11.1,11.1,0,0,0,87.61,48.1ZM55.92,37V26.8c0-7.67,5.64-13.67,12.85-13.67h1.15c6.25,0,8.46,2.73,10.69,6.3a1,1,0,0,0,.85.47c1.69,0,2.46,1.82,2.46,3.51V37c0,3.91,2.94,6.28,4.39,7.22a5,5,0,0,1-3.4,2.94,13.86,13.86,0,0,0-1.48-.3l-5.59-.6V42a12.27,12.27,0,0,0,2.31-7.27V23.41a1,1,0,0,0-1.82-.57s-2.07,3-4.94,3H66.46c-5.08,0-6.51,2.52-6.66,2.8a1,1,0,0,0-.11.46V34.7A12.27,12.27,0,0,0,62,42v4.25l-3,.32a13.17,13.17,0,0,0-5.45-4.07A8,8,0,0,0,55.92,37Zm4.35,11.45,2.84-.3a.94.94,0,0,0,.14,0,1,1,0,0,0,.19-.06,1,1,0,0,0,.16-.11.69.69,0,0,0,.25-.28,1,1,0,0,0,.09-.17,1,1,0,0,0,0-.19.94.94,0,0,0,0-.14V44a10.27,10.27,0,0,0,11.85,0v3.14a.94.94,0,0,0,0,.14,1,1,0,0,0,0,.19,1,1,0,0,0,.09.17,1.16,1.16,0,0,0,.41.38,1,1,0,0,0,.19.06.94.94,0,0,0,.14,0l3.94.42c-1.82,3.28-6,5.49-10.75,5.49a13.51,13.51,0,0,1-8.6-2.93A12,12,0,0,0,60.27,48.41Zm9.65-4.55c-5.65,0-8.23-4.75-8.23-9.16V29.37c.36-.44,1.6-1.57,4.77-1.57h6.92a7.56,7.56,0,0,0,4.77-1.88V34.7C78.15,39.11,75.58,43.86,69.92,43.86ZM46.85,43.6h2.31A10.69,10.69,0,0,1,59.69,53.89V55A10.23,10.23,0,0,1,57,62.2a11.39,11.39,0,0,0,.11-1.54V55a1,1,0,0,0-1-1,4,4,0,0,1-3.67-2.71,1,1,0,0,0-1.84-.12c-1.29,2.62-2.58,4-6,4H39.92a1,1,0,0,0-1,1v4.51A11.39,11.39,0,0,0,39,62.2,10.23,10.23,0,0,1,36.31,55V53.89A10.69,10.69,0,0,1,46.85,43.6Zm5.92,27.34a4.77,4.77,0,0,1-9.54,0V69.3a8.91,8.91,0,0,0,9.54,0Zm2.31-10.29c0,4-2.43,8-7.08,8s-7.08-4-7.08-8V57.14h3.62c3.57,0,5.5-1.33,6.9-3.45a6.14,6.14,0,0,0,3.64,2.21ZM20.15,44a9.72,9.72,0,0,0,5.92,1.88A9.72,9.72,0,0,0,32,44v2.85l-4.8,7.82a1.37,1.37,0,0,1-2.25,0l-4.8-7.82ZM12.08,26.8V24.54A12.87,12.87,0,0,1,24.92,12h1.15c5.32,0,7.53,1.89,9.53,5.17a1,1,0,0,0,.85.48c3.36,0,3.62,2.86,3.62,6.9V26.8c0,4.8-2.27,7.29-3.79,8.43,0-.18,0-.35,0-.53v-9a1,1,0,0,0-1-1,5.17,5.17,0,0,1-4.85-2.79,1,1,0,0,0-.89-.59,1,1,0,0,0-.92.55c-1.65,3.3-3.28,5.09-7.18,5.09H16.85a1,1,0,0,0-1,1V34.7c0,.17,0,.34,0,.51C14.35,34.07,12.08,31.57,12.08,26.8Zm5.77,2.13h3.62a8.66,8.66,0,0,0,8.16-4.69,7.37,7.37,0,0,0,4.69,2.37V34.7c0,4.41-2.58,9.16-8.23,9.16s-8.23-4.75-8.23-9.16ZM36.64,65.52a61.6,61.6,0,0,1-21.13,0l-2.28-.4V60.66a1,1,0,0,0-2,0v4.12l-5.18-.9A2.32,2.32,0,0,1,4,61.72V58c0-4.61,3.7-8.47,8.78-9.17l5.86-.63,4.61,7.52a3.33,3.33,0,0,0,5.66,0l4.61-7.52,2.21.24a11.55,11.55,0,0,0-1.42,5.47V55a12.36,12.36,0,0,0,4.92,10.06Zm30,15.3v3.24A1.85,1.85,0,0,1,65,85.8l-4.46.79V83.36a1,1,0,0,0-2,0v3.58L57,87.22a51.32,51.32,0,0,1-17.9,0l-1.59-.28V83.36a1,1,0,0,0-2,0v3.23L31,85.8a1.85,1.85,0,0,1-1.62-1.73V80.83c0-3.92,3.09-7.2,7.41-7.81l4.55-.88a6.79,6.79,0,0,0,13.31,0l4.6.89C63.52,73.63,66.62,76.91,66.62,80.83ZM92,61.72a2.32,2.32,0,0,1-2.05,2.16l-5.18.9V60.66a1,1,0,0,0-2,0v4.47l-2.28.4a61.6,61.6,0,0,1-21.13,0l-2.59-.45A12.36,12.36,0,0,0,61.69,55V53.89s0-.06,0-.1A16.06,16.06,0,0,0,69.92,56c5.78,0,10.94-2.95,12.88-7.26l.4,0C88.3,49.51,92,53.37,92,58Z"/></svg>