<?xml version="1.0" encoding="utf-8"?>
<!-- Generator: Adobe Illustrator 23.0.0, SVG Export Plug-In . SVG Version: 6.00 Build 0)  -->
<svg version="1.1" id="Layer_1" xmlns="http://www.w3.org/2000/svg" xmlns:xlink="http://www.w3.org/1999/xlink" x="0px" y="0px"
	 viewBox="0 0 96 96" style="enable-background:new 0 0 96 96;" xml:space="preserve">
<style type="text/css">
	.st0{fill:#FFFFFF;}
</style>
<title>axa_icon_96_lifesavings_2px</title>
<path class="st0" d="M83.8,35.1c1.2,0,2.2-1,2.2-2.2v-7.2c0-1.2-1-2.2-2.2-2.2h-1.4v-7.4c0-1.2-1-2.2-2.2-2.2H32.5
	c-1.2,0-2.2,1-2.2,2.2v7.2c0,1.2,1,2.2,2.2,2.2h1.4c0,0.1,0,0.1,0,0.2v2.7c-0.8-0.1-1.7-0.1-2.6-0.1C16.2,28.4,4,40.6,4,55.7
	S16.2,83,31.3,83h50.1c1.3-0.1,2.2-1.1,2.2-2.4v-6.8c0-1.3-0.9-2.3-2.2-2.4H80v-7.6h0.2c1.3-0.1,2.2-1.1,2.2-2.4v-7.2h1.4
	c1.3,0,2.3-1.1,2.2-2.3l0,0v-6.8c0-1.3-0.9-2.3-2.2-2.4H80v-7.6C80,35.1,83.8,35.1,83.8,35.1z M32.3,23.4v-7.2
	c0-0.1,0.1-0.2,0.2-0.2h47.8c0.1,0,0.2,0.1,0.2,0.2v7.4h-48C32.3,23.6,32.3,23.5,32.3,23.4z M35.8,25.8c0-0.1,0.1-0.2,0.2-0.2h47.8
	c0.1,0,0.2,0.1,0.2,0.2V33c0,0.1-0.1,0.2-0.2,0.2H46.7c-3.2-2.2-6.9-3.7-10.8-4.4v-3C35.9,25.8,35.8,25.8,35.8,25.8z M6,55.7
	c0-14,11.4-25.2,25.3-25.2c14,0,25.2,11.4,25.2,25.3S45.2,81,31.3,81C17.3,81,6,69.6,6,55.7z M81.6,73.8v6.8c0,0.2-0.1,0.4-0.2,0.4
	H41.5c4.1-1.6,7.7-4.2,10.5-7.6h29.4C81.5,73.4,81.6,73.6,81.6,73.8z M78,71.4H53.5c1.6-2.3,2.9-4.9,3.8-7.6H78V71.4z M80.4,61.5
	c0,0.2-0.1,0.4-0.2,0.4H57.8c0.5-2,0.7-4.1,0.7-6.2c0-0.5,0-0.9,0-1.4h21.9V61.5z M84,45.1v6.8c0,0.2-0.1,0.4-0.2,0.4H58.3
	c-0.3-2.6-1-5.2-2.1-7.6h27.6C83.9,44.7,84,44.8,84,45.1z M78,42.7H55.3c-1.5-2.9-3.6-5.4-6-7.6H78V42.7z"/>
<path class="st0" d="M52.6,55.7c0-11.8-9.6-21.3-21.3-21.3C19.5,34.4,10,44,10,55.7C10,67.5,19.5,77,31.3,77
	C43,77,52.6,67.4,52.6,55.7z M12,55.7c0-10.7,8.7-19.3,19.3-19.3c10.7,0,19.3,8.7,19.3,19.3C50.6,66.4,42,75,31.3,75
	S12,66.3,12,55.7L12,55.7z"/>
<path class="st0" d="M39.5,54.6c0,0.9,0,1.8,0,2.7c0.1,0,0.1,0,0.2,0c0.8,0,1.7,0,2.5,0c0.1,0,0.2,0,0.2,0.2c0,0.5,0,1,0,1.4
	c0,0.2,0,0.2-0.2,0.2c-0.8,0-1.7,0-2.5,0c-0.1,0-0.2,0-0.2,0.2c0,2,0,3.9,0,5.9c0,0.2,0,0.2-0.2,0.2c-0.8,0-1.6,0-2.5,0
	c-0.1,0-0.2,0-0.2-0.1c-1.3-2-2.6-4-3.9-6c-0.1-0.1-0.1-0.1-0.2-0.1c-1.8,0-3.7,0-5.5,0c-0.1,0-0.2,0-0.2,0.2c0,2,0,3.9,0,5.9
	c0,0.1,0,0.1,0,0.2c-0.8,0-1.6,0-2.4,0c0-0.1,0-0.1,0-0.2c0-2,0-3.9,0-5.9c0-0.2,0-0.2-0.2-0.2c-0.8,0-1.6,0-2.3,0
	c-0.1,0-0.2,0-0.2-0.2c0-0.5,0-1,0-1.5c0-0.1,0-0.2,0.2-0.2c0.8,0,1.6,0,2.4,0c0,0,0.1,0,0.2,0c0-0.9,0-1.8,0-2.7
	c-0.1,0-0.1,0-0.2,0c-0.8,0-1.6,0-2.4,0c-0.1,0-0.2,0-0.2-0.2c0-0.5,0-1,0-1.5c0-0.1,0-0.2,0.2-0.1c0.8,0,1.6,0,2.3,0
	c0.2,0,0.2,0,0.2-0.2c0-2,0-3.9,0-5.9c0-0.2,0-0.2,0.2-0.2c0.8,0,1.6,0,2.4,0c0.1,0,0.2,0,0.3,0.1c1.3,2,2.6,4,3.9,6
	c0.1,0.1,0.1,0.1,0.2,0.1c1.8,0,3.7,0,5.5,0c0.2,0,0.2-0.1,0.2-0.2c0-2,0-3.9,0-5.9c0-0.2,0-0.2,0.2-0.2c0.7,0,1.4,0,2,0
	c0.1,0,0.2,0,0.2,0.2c0,2,0,3.9,0,5.9c0,0.2,0,0.2,0.2,0.2c0.8,0,1.7,0,2.5,0c0.1,0,0.2,0,0.2,0.2c0,0.5,0,1,0,1.5
	c0,0.1,0,0.2-0.2,0.2c-0.8,0-1.7,0-2.5,0C39.6,54.6,39.5,54.6,39.5,54.6z M32.4,54.6C32.4,54.7,32.4,54.7,32.4,54.6
	c0.6,0.9,1.1,1.8,1.7,2.6c0,0,0.1,0.1,0.2,0.1c0.9,0,1.8,0,2.7,0c0.1,0,0.2,0,0.2-0.2c0-0.8,0-1.6,0-2.4v-0.1
	C35.5,54.6,34,54.6,32.4,54.6z M31.4,57.3c0-0.1,0-0.1-0.1-0.1c-0.5-0.8-1.1-1.7-1.6-2.5c0-0.1-0.1-0.1-0.2-0.1c-0.9,0-1.7,0-2.6,0
	h-0.1c0,0.1,0,0.1,0,0.2c0,0.8,0,1.6,0,2.3c0,0.1,0,0.2,0.2,0.2c1.4,0,2.8,0,4.2,0C31.3,57.3,31.3,57.3,31.4,57.3z M37,61.8
	C37.1,61.7,37.1,61.7,37,61.8c0-0.9,0-1.8,0-2.6c0-0.1-0.1-0.1-0.1-0.1c-0.5,0-1,0-1.5,0h-0.1C35.9,60,36.5,60.9,37,61.8z
	 M28.4,52.8c-0.6-0.9-1.1-1.7-1.6-2.5l0,0c0,0.2,0,0.4,0,0.6c0,0.6,0,1.2,0,1.8c0,0.1,0,0.1,0.1,0.1C27.4,52.8,27.9,52.8,28.4,52.8z
	"/>
<path class="st0" d="M37,61.8c-0.6-0.9-1.2-1.8-1.7-2.7c0.1,0,0.1,0,0.1,0c0.5,0,1,0,1.5,0c0.1,0,0.1,0,0.1,0.1
	C37.1,60,37.1,60.9,37,61.8C37.1,61.7,37.1,61.7,37,61.8z"/>
</svg>
